# xmcd
#
# Track frame offsets:
#	150
#	59900
#	80572
#	97067
#	116977
#	136557
#	157957
#	179082
#	198137
#	217237
#	238080
#	259362
#	279950
#
# Disc length: 3930 seconds
#
# Revision: 1
# Processed by: cddbd v1.5.2PL0 Copyright (c) Steve Scherf et al.
# Submitted via: EasyCDDAExtractor 15.3.0.1
#
DISCID=ca0f580d
DTITLE=Varios Artistas - Merengue Madness 2
DYEAR=1995
DGENRE=Latin
TTITLE0=Varios Artistas - Merengue Madness - Extended Madness Mix
TTITLE1=Manny Manuel - Se Acabo Lo Que Se Daba
TTITLE2=Mayra Mayra - Si Volvieras A Mi
TTITLE3=Victor Roque Y La Gran Manzana - Ven Junto A Mi
TTITLE4=Los Hermanos Rosario - Morena Ven
TTITLE5=Varios Artistas - Merengue Madness - Radio Madness Mix
TTITLE6=Grupo Mania - Ojitos Bellos
TTITLE7=Gisselle - Perfume De Mujer En Tu Camisa
TTITLE8=Rikarena - Nunca Te Menti
TTITLE9=Kinito Mendez - La Pegue
TTITLE10=Zafra Negra - El Hombre Llora
TTITLE11=La Banda Del Swing - Tirame Un Besito
TTITLE12=Dos Caras - Yo No Fui
EXTD=
EXTT0=
EXTT1=
EXTT2=
EXTT3=
EXTT4=
EXTT5=
EXTT6=
EXTT7=
EXTT8=
EXTT9=
EXTT10=
EXTT11=
EXTT12=
PLAYORDER=
